<svg xmlns="http://www.w3.org/2000/svg" xmlns:xlink="http://www.w3.org/1999/xlink" width="676.17" height="221.543" viewBox="0 0 676.17 221.543">
  <defs>
    <linearGradient id="linear-gradient" x1="0.589" y1="-0.209" x2="0.5" y2="1" gradientUnits="objectBoundingBox">
      <stop offset="0" stop-color="#22d3ee"/>
      <stop offset="1" stop-color="#34d399"/>
    </linearGradient>
  </defs>
  <g id="Group_5" data-name="Group 5" transform="translate(-592 -268.025)">
    <g id="Group_3" data-name="Group 3" transform="translate(0 0.284)">
      <g id="Group_2" data-name="Group 2">
        <g id="Group_1" data-name="Group 1">
          <circle id="Ellipse_1" data-name="Ellipse 1" cx="38.5" cy="38.5" r="38.5" transform="translate(592 405)" fill="url(#linear-gradient)"/>
          <rect id="Rectangle_1" data-name="Rectangle 1" width="210" height="77" rx="38.5" transform="matrix(-0.469, -0.883, 0.883, -0.469, 742.301, 489.284)" fill="url(#linear-gradient)"/>
        </g>
      </g>
    </g>
    <path id="ATL_Gen" data-name="ATL Gen" d="M27.39-30.36,37.62-59.18h.22l9.9,28.82Zm1.65-48.18L-.66,0H16.72l6.16-17.49H52.25L58.19,0H76.12L46.75-78.54ZM90.2-64.02V0h17.27V-64.02h23.54V-78.54H66.66v14.52Zm49.83-14.52V0h55.55V-14.52H157.3V-78.54ZM292.6-8.91,294.36,0h11V-42.46h-33v12.87h17.38q-.77,8.25-5.445,12.6T271.04-12.65a20.16,20.16,0,0,1-9.9-2.255,18.887,18.887,0,0,1-6.6-5.995,26.012,26.012,0,0,1-3.685-8.415A39.981,39.981,0,0,1,249.7-38.94a42.978,42.978,0,0,1,1.155-10.01,26.511,26.511,0,0,1,3.685-8.635,18.693,18.693,0,0,1,6.6-6.05,20.16,20.16,0,0,1,9.9-2.255,17.275,17.275,0,0,1,10.67,3.3q4.4,3.3,5.94,9.9h16.5a29.318,29.318,0,0,0-3.63-11.88,29.219,29.219,0,0,0-7.535-8.69,33.193,33.193,0,0,0-10.23-5.335A38.161,38.161,0,0,0,271.04-80.41a39.67,39.67,0,0,0-16.225,3.19,34.7,34.7,0,0,0-12.155,8.8,39.238,39.238,0,0,0-7.59,13.145,49.074,49.074,0,0,0-2.64,16.335,47.436,47.436,0,0,0,2.64,16,38.225,38.225,0,0,0,7.59,12.925,34.767,34.767,0,0,0,12.155,8.635A40.273,40.273,0,0,0,271.04,1.76,28.939,28.939,0,0,0,282.37-.605,25.883,25.883,0,0,0,292.6-8.91Zm63.36-25.63H330.55a17.929,17.929,0,0,1,.715-3.74,11.484,11.484,0,0,1,2.09-3.96,11.833,11.833,0,0,1,3.96-3.135,13.589,13.589,0,0,1,6.215-1.265q5.72,0,8.525,3.08T355.96-34.54Zm-25.41,9.9h41.03a40.149,40.149,0,0,0-1.1-12.65,30.962,30.962,0,0,0-5.005-10.78,25.247,25.247,0,0,0-8.855-7.535,27.042,27.042,0,0,0-12.65-2.805,29.454,29.454,0,0,0-11.825,2.31,27.958,27.958,0,0,0-9.185,6.325,27.879,27.879,0,0,0-5.94,9.515,33.168,33.168,0,0,0-2.09,11.88,34.627,34.627,0,0,0,2.035,12.1,27.478,27.478,0,0,0,5.775,9.46,25.159,25.159,0,0,0,9.13,6.1,32.481,32.481,0,0,0,12.1,2.145q9.68,0,16.5-4.4T370.59-17.6H356.84q-.77,2.64-4.18,5.005a13.925,13.925,0,0,1-8.14,2.365q-6.6,0-10.12-3.41T330.55-24.64Zm50.27-32.23V0h15.62V-29.81q0-8.69,2.86-12.485t9.24-3.8q5.61,0,7.81,3.465t2.2,10.505V0h15.62V-34.98a45.837,45.837,0,0,0-.935-9.625,18.3,18.3,0,0,0-3.245-7.37,15.248,15.248,0,0,0-6.325-4.73A26.529,26.529,0,0,0,413.38-58.41a22.267,22.267,0,0,0-9.68,2.255A17.922,17.922,0,0,0,396-48.95h-.33v-7.92Z" transform="translate(834 420)" fill="#fff"/>
  </g>
</svg>
